<?xml version="1.0" encoding="UTF-8" standalone="no"?>
<!-- Created with Inkscape (http://www.inkscape.org/) -->

<svg
   xmlns:dc="http://purl.org/dc/elements/1.1/"
   xmlns:cc="http://creativecommons.org/ns#"
   xmlns:rdf="http://www.w3.org/1999/02/22-rdf-syntax-ns#"
   xmlns:svg="http://www.w3.org/2000/svg"
   xmlns="http://www.w3.org/2000/svg"
   xmlns:sodipodi="http://sodipodi.sourceforge.net/DTD/sodipodi-0.dtd"
   xmlns:inkscape="http://www.inkscape.org/namespaces/inkscape"
   id="svg2"
   version="1.1"
   inkscape:version="0.48.4 r9939"
   width="32"
   height="32.000004"
   sodipodi:docname="escudo.svg">
  <metadata
     id="metadata8">
    <rdf:RDF>
      <cc:Work
         rdf:about="">
        <dc:format>image/svg+xml</dc:format>
        <dc:type
           rdf:resource="http://purl.org/dc/dcmitype/StillImage" />
        <dc:title />
      </cc:Work>
    </rdf:RDF>
  </metadata>
  <defs
     id="defs6" />
  <sodipodi:namedview
     pagecolor="#ffffff"
     bordercolor="#666666"
     borderopacity="1"
     objecttolerance="10"
     gridtolerance="10"
     guidetolerance="10"
     inkscape:pageopacity="0"
     inkscape:pageshadow="2"
     inkscape:window-width="1366"
     inkscape:window-height="721"
     id="namedview4"
     showgrid="false"
     fit-margin-top="0"
     fit-margin-left="0"
     fit-margin-right="0"
     fit-margin-bottom="0"
     inkscape:zoom="15.349593"
     inkscape:cx="13.592976"
     inkscape:cy="16.794005"
     inkscape:window-x="-2"
     inkscape:window-y="24"
     inkscape:window-maximized="1"
     inkscape:current-layer="svg2" />
  <path
     style="fill:#e0dfdf;fill-opacity:1"
     d="M 15.999095,3.2515387e-6 C 14.380718,-7.1674846e-4 12.762113,0.11814325 11.962268,0.35076325 10.564167,0.75738325 7.9479806,1.9677433 6.8826403,2.7035833 c -3.0958138,2.13834 -5.5568128,5.72208 -6.48257329,9.4436497 -0.53342268,2.14436 -0.53342268,5.55626 0,7.70063 1.51716899,6.09903 6.63110439,10.93514 12.72325899,12.0393 1.319253,0.2391 5.645099,0.0734 6.923345,-0.26443 1.332304,-0.35211 3.958416,-1.55847 5.085004,-2.33662 3.098007,-2.13986 5.555321,-5.72592 6.471822,-9.43825 0.528671,-2.14142 0.528671,-5.55922 0,-7.70063 C 30.686996,8.4349033 28.229682,4.8434333 25.131675,2.7035833 24.060166,1.9634733 21.437393,0.75085325 20.046671,0.35076325 19.235621,0.11744325 17.617472,7.0325154e-4 15.999095,3.2515387e-6 z M 16.004495,2.9626133 c 2.585567,-0.003 3.853209,0.30501 6.192308,1.51638 1.774358,0.9189 4.205742,3.28074 5.160258,5.01323 1.789951,3.2488497 2.160426,7.0438497 1.037426,10.5984697 -0.628177,1.98836 -1.517179,3.38792 -3.268163,5.14814 -1.697394,1.70635 -3.257734,2.65553 -5.50965,3.35655 -0.827803,0.25768 -1.795323,0.39735 -3.096154,0.4425 -2.747684,0.0954 -4.171751,-0.2276 -6.7083344,-1.52718 -2.0022712,-1.02584 -4.3752861,-3.44271 -5.3806401,-5.47192 -1.9456372,-3.92708 -1.9456372,-8.16079 0,-12.0878797 1.0021443,-2.02273 3.3751385,-4.43656 5.3806428,-5.47191 2.3221747,-1.19883 3.6059397,-1.51298 6.1923097,-1.51638 z m 0,2.04522 c -1.254476,0 -2.508954,0.1152 -3.182159,0.34537 -3.5917504,1.22805 -6.2233475,3.83319 -7.3264901,7.2419297 -0.3888874,1.20167 -0.4622731,1.71742 -0.4622731,3.39971 0,1.6823 0.073386,2.20345 0.4622731,3.40512 0.559795,1.72978 1.8207194,3.68839 3.1445316,4.87292 1.3639455,1.22044 3.5836705,2.3167 5.3860185,2.66581 1.055156,0.20438 4.397865,-0.0327 5.380642,-0.38315 2.53165,-0.90257 4.371774,-2.31372 5.789165,-4.44121 1.29032,-1.93676 1.779214,-3.62325 1.779214,-6.11949 0,-1.68229 -0.06801,-2.19804 -0.456899,-3.39971 -1.103142,-3.4087397 -3.740112,-6.0138797 -7.331865,-7.2419297 -0.673206,-0.23017 -1.927683,-0.34537 -3.182158,-0.34537 z m 4.950621,3.84761 c 0.821731,-0.005 1.499235,0.11527 2.015725,0.36156 0.105859,0.0505 0.256318,0.35837 0.333267,0.68535 l 0.139757,0.5935997 -0.516025,-0.3076 c -1.470115,-0.8728497 -4.468238,-0.8580197 -5.60103,0.027 -0.857091,0.66961 -1.814609,2.537 -2.461872,4.80277 -0.260736,0.9127 -0.13753,0.71725 0.381644,-0.5936 0.550955,-1.39109 1.472651,-2.83887 2.182358,-3.43209 0.999598,-0.83555 1.162214,-0.76105 1.51045,0.72312 0.926511,3.94782 -1.264484,8.27014 -5.262387,10.37182 -1.244913,0.65445 -3.249297,1.13632 -4.3485915,1.04689 l -0.7632877,-0.0593 0.5106505,-0.28601 c 1.0504927,-0.58546 1.5401437,-1.67963 1.9942247,-4.4682 0.38684,-2.37565 0.663456,-3.49144 1.144932,-4.62469 1.027711,-2.41891 2.731044,-3.7079797 5.864417,-4.4466097 1.088477,-0.25658 2.054037,-0.38866 2.875768,-0.39394 z"
     id="path2987"
     inkscape:connector-curvature="0"
     inkscape:export-filename="/var/www/html/SIDMA/public/img/escudo.png"
     inkscape:export-xdpi="90"
     inkscape:export-ydpi="90" />
</svg>
