<?xml version="1.0" encoding="UTF-8" standalone="no"?>
<!-- Created with Inkscape (http://www.inkscape.org/) -->

<svg
   xmlns:dc="http://purl.org/dc/elements/1.1/"
   xmlns:cc="http://creativecommons.org/ns#"
   xmlns:rdf="http://www.w3.org/1999/02/22-rdf-syntax-ns#"
   xmlns:svg="http://www.w3.org/2000/svg"
   xmlns="http://www.w3.org/2000/svg"
   xmlns:sodipodi="http://sodipodi.sourceforge.net/DTD/sodipodi-0.dtd"
   xmlns:inkscape="http://www.inkscape.org/namespaces/inkscape"
   id="svg2"
   version="1.1"
   inkscape:version="0.48.4 r9939"
   width="126.29503"
   height="32.000004"
   sodipodi:docname="logo.svg">
  <metadata
     id="metadata8">
    <rdf:RDF>
      <cc:Work
         rdf:about="">
        <dc:format>image/svg+xml</dc:format>
        <dc:type
           rdf:resource="http://purl.org/dc/dcmitype/StillImage" />
        <dc:title />
      </cc:Work>
    </rdf:RDF>
  </metadata>
  <defs
     id="defs6" />
  <sodipodi:namedview
     pagecolor="#ffffff"
     bordercolor="#666666"
     borderopacity="1"
     objecttolerance="10"
     gridtolerance="10"
     guidetolerance="10"
     inkscape:pageopacity="0"
     inkscape:pageshadow="2"
     inkscape:window-width="1366"
     inkscape:window-height="721"
     id="namedview4"
     showgrid="false"
     fit-margin-top="0"
     fit-margin-left="0"
     fit-margin-right="0"
     fit-margin-bottom="0"
     inkscape:zoom="7.6747968"
     inkscape:cx="60.231789"
     inkscape:cy="17.194146"
     inkscape:window-x="-2"
     inkscape:window-y="24"
     inkscape:window-maximized="1"
     inkscape:current-layer="svg2" />
  <text
     xml:space="preserve"
     style="font-size:26.51571465px;font-style:normal;font-variant:normal;font-weight:500;font-stretch:normal;line-height:125%;letter-spacing:0px;word-spacing:0px;fill:#6ecb00;fill-opacity:1;stroke:none;font-family:Cursor;-inkscape-font-specification:Cursor Medium"
     x="39.847073"
     y="25.257206"
     id="text2995"
     sodipodi:linespacing="125%"><tspan
       sodipodi:role="line"
       id="tspan2997"
       x="39.847073"
       y="25.257206"
       style="font-size:26.51571465px;font-style:normal;font-variant:normal;font-weight:bold;font-stretch:normal;text-align:start;line-height:125%;writing-mode:lr-tb;text-anchor:start;fill:#6ecb00;fill-opacity:1;font-family:Sansation;-inkscape-font-specification:Sansation Bold">SIDMA</tspan></text>
  <path
     style="fill:#e0dfdf;fill-opacity:1"
     d="M 16.061903,3.2512673e-6 C 14.437172,-7.1674873e-4 12.812213,0.11815325 12.009229,0.35077325 c -1.40359,0.40661 -4.0300472,1.61697025 -5.0995692,2.35282025 -3.107967,2.13833 -5.578627,5.72208 -6.50802205,9.4436395 -0.535517,2.14437 -0.535517,5.55626 0,7.70062 1.52312495,6.09904 6.65713595,10.93515 12.77320725,12.03931 1.324432,0.2391 5.667261,0.0734 6.950524,-0.26443 1.337534,-0.35212 3.973956,-1.55847 5.104967,-2.33662 3.110169,-2.13986 5.57713,-5.72592 6.497229,-9.43826 0.530745,-2.1414 0.530745,-5.55921 0,-7.70062 C 30.807466,8.4349035 28.340505,4.8434435 25.230336,2.7035935 24.15462,1.9634735 21.521551,0.75085325 20.125369,0.35077325 19.311135,0.11744325 17.686634,7.1325127e-4 16.061903,3.2512673e-6 z M 16.067303,2.9626135 c 2.595716,-0.003 3.868336,0.30501 6.216617,1.51638 1.781323,0.9189 4.222253,3.28074 5.180515,5.01323 1.79698,3.2488495 2.168908,7.0438495 1.0415,10.5984695 -0.630643,1.98837 -1.523135,3.38791 -3.280994,5.14814 -1.704057,1.70635 -3.270523,2.65553 -5.531279,3.35654 -0.831053,0.25769 -1.802371,0.39736 -3.108308,0.4425 -2.758472,0.0954 -4.188129,-0.22759 -6.7346712,-1.52717 -2.010132,-1.02583 -4.392462,-3.44271 -5.401763,-5.47192 -1.9532761,-3.92708 -1.9532761,-8.16079 0,-12.0878695 1.006078,-2.02273 3.388388,-4.43657 5.401765,-5.47192 2.3312922,-1.19883 3.6200962,-1.51298 6.2166192,-1.51638 z m 0,2.04523 c -1.259402,0 -2.518804,0.11519 -3.194652,0.34536 -3.6058512,1.22805 -6.2477782,3.83319 -7.3552522,7.2419295 -0.390413,1.20167 -0.464087,1.71742 -0.464087,3.39972 0,1.68229 0.07367,2.20344 0.464087,3.40511 0.561993,1.72978 1.827867,3.68839 3.156876,4.87292 1.3693002,1.22044 3.5977392,2.3167 5.4071632,2.66581 1.059298,0.20437 4.41513,-0.0328 5.401765,-0.38315 2.541589,-0.90257 4.388937,-2.31372 5.811892,-4.44121 1.295385,-1.93677 1.786198,-3.62325 1.786198,-6.11948 0,-1.6823 -0.06828,-2.19805 -0.458691,-3.39972 -1.107473,-3.4087395 -3.754796,-6.0138795 -7.360649,-7.2419295 -0.675849,-0.23017 -1.935251,-0.34536 -3.19465,-0.34536 z m 4.970056,3.84761 c 0.824957,-0.005 1.50512,0.11527 2.023639,0.36155 0.106274,0.0505 0.257322,0.35837 0.334574,0.68534 l 0.140306,0.5935995 -0.518052,-0.30759 c -1.475886,-0.8728495 -4.485779,-0.8580195 -5.623018,0.027 -0.860455,0.66961 -1.821733,2.53701 -2.471536,4.80277 -0.261759,0.9127 -0.13807,0.71725 0.383142,-0.5936 0.553118,-1.39109 1.478433,-2.83887 2.190925,-3.43209 1.003523,-0.83555 1.166777,-0.76105 1.516381,0.72311 0.930148,3.94783 -1.269449,8.27014 -5.283047,10.37183 -1.2498,0.65445 -3.262053,1.13632 -4.3656632,1.04689 l -0.766284,-0.0594 0.512655,-0.286 c 1.0546162,-0.58546 1.5461902,-1.67963 2.0020542,-4.4682 0.388358,-2.37565 0.666061,-3.49143 1.149426,-4.62469 1.031746,-2.41891 2.741765,-3.7079795 5.88744,-4.4466095 1.09275,-0.25658 2.0621,-0.38866 2.887058,-0.39393 z"
     id="path2987"
     inkscape:connector-curvature="0" />
</svg>
